<svg width="100" height="100" viewBox="0 0 100 100" fill="none" xmlns="http://www.w3.org/2000/svg">
<path d="M100 50C100 77.6142 77.6142 100 50 100C22.3858 100 0 77.6142 0 50C0 22.3858 22.3858 0 50 0C77.6142 0 100 22.3858 100 50Z" fill="#D9D9D9"/>
<path d="M18.4615 88.8005C21.1673 75.4846 34.2584 65.3846 50 65.3846C65.7416 65.3846 78.8327 75.4846 81.5385 88.8005C72.9348 95.8025 61.9576 100 50 100C38.0424 100 27.0652 95.8025 18.4615 88.8005Z" fill="white"/>
<path d="M65.3846 43.2692C65.3846 51.9429 58.3532 58.9744 49.6795 58.9744C41.0058 58.9744 33.9744 51.9429 33.9744 43.2692C33.9744 34.5955 41.0058 27.5641 49.6795 27.5641C58.3532 27.5641 65.3846 34.5955 65.3846 43.2692Z" fill="white"/>
</svg>
