<svg width="128" height="151" viewBox="0 0 128 151" fill="none" xmlns="http://www.w3.org/2000/svg">
<path d="M35.8395 80.871C-3.77008 80.871 -5.46235 32.0096 25.4215 30.2162C28.4507 30.3126 31.8313 30.8575 35.5751 31.9329C35.5751 -4.15048 92.1603 -6.47997 92.1603 32.0095C96.0097 30.8833 99.4782 30.3148 102.579 30.2162C133.463 32.0096 131.77 80.871 92.1603 80.871V91.4052L35.9717 91.4052L35.8395 80.871Z" fill="white"/>
<path d="M35.5751 70.1792L35.8395 80.871M92.1603 70.1792V91.4052M35.8395 80.871C-3.77008 80.871 -5.46235 32.0096 25.4215 30.2162C28.4507 30.3126 31.8313 30.8575 35.5751 31.9329C35.5751 -4.15048 92.1603 -6.47997 92.1603 32.0095C96.0097 30.8833 99.4782 30.3148 102.579 30.2162C133.463 32.0096 131.77 80.871 92.1603 80.871V91.4052M35.8395 80.871L35.9717 91.4052L92.1603 91.4052" stroke="black" stroke-width="7.23618" stroke-linecap="round" stroke-linejoin="round"/>
<path d="M22.5859 124.232L24.2031 127.643C23.5 128.85 22.6211 129.764 21.5664 130.385C20.5234 131.006 19.416 131.316 18.2441 131.316C17.2246 131.316 16.2812 131.053 15.4141 130.525C14.5586 129.986 13.8145 129.219 13.1816 128.223C12.5488 127.215 12.0508 125.984 11.6875 124.531C11.3359 123.078 11.1602 121.432 11.1602 119.592C11.1602 117.717 11.3594 116.053 11.7578 114.6C12.168 113.135 12.7305 111.904 13.4453 110.908C14.1602 109.912 15.0039 109.156 15.9766 108.641C16.9492 108.113 17.998 107.85 19.123 107.85C19.8145 107.85 20.4648 107.984 21.0742 108.254C21.6836 108.523 22.2168 108.863 22.6738 109.273C23.1309 109.684 23.4941 110.141 23.7637 110.645C24.0332 111.148 24.168 111.629 24.168 112.086C24.168 112.684 23.9336 113.176 23.4648 113.562L21.1973 115.074L21.1445 114.986C21.4258 114.717 21.6309 114.412 21.7598 114.072C21.8887 113.732 21.9531 113.387 21.9531 113.035C21.9531 112.637 21.877 112.244 21.7246 111.857C21.5723 111.471 21.3613 111.125 21.0918 110.82C20.834 110.504 20.5176 110.252 20.1426 110.064C19.7676 109.877 19.3633 109.783 18.9297 109.783C18.3789 109.783 17.8691 109.918 17.4004 110.188C16.9316 110.445 16.5098 110.809 16.1348 111.277C15.7715 111.746 15.4492 112.297 15.168 112.93C14.8867 113.562 14.6523 114.248 14.4648 114.986C14.2773 115.725 14.1367 116.504 14.043 117.324C13.9492 118.145 13.9023 118.965 13.9023 119.785C13.9023 121.004 13.9844 122.188 14.1484 123.336C14.3242 124.484 14.582 125.51 14.9219 126.412C15.2734 127.314 15.707 128.041 16.2227 128.592C16.7383 129.131 17.3477 129.4 18.0508 129.4C18.625 129.4 19.1523 129.266 19.6328 128.996C20.1133 128.727 20.541 128.363 20.916 127.906C21.3027 127.438 21.625 126.893 21.8828 126.271C22.1523 125.639 22.3691 124.959 22.5332 124.232H22.5859ZM36.666 122.703C36.666 124.191 36.6777 125.41 36.7012 126.359C36.7246 127.297 36.8125 128.041 36.9648 128.592C37.1172 129.131 37.3633 129.506 37.7031 129.717C38.043 129.916 38.5352 130.016 39.1797 130.016V130.104L34.416 131.51C34.5098 131.193 34.5625 130.83 34.5742 130.42C34.5859 129.998 34.5918 129.564 34.5918 129.119C34.2754 129.611 33.9297 130.016 33.5547 130.332C33.1914 130.637 32.8164 130.877 32.4297 131.053C32.043 131.229 31.6562 131.346 31.2695 131.404C30.8945 131.475 30.5488 131.51 30.2324 131.51C29.0605 131.51 28.1406 130.859 27.4727 129.559C26.8164 128.258 26.4883 126.33 26.4883 123.775C26.4883 122.182 26.4766 120.875 26.4531 119.855C26.4414 118.824 26.3594 118.016 26.207 117.43C26.0547 116.844 25.8086 116.439 25.4688 116.217C25.1406 115.982 24.6543 115.865 24.0098 115.865V115.777L29.6523 113.668C29.5586 113.82 29.4766 113.984 29.4062 114.16C29.3477 114.336 29.2949 114.553 29.248 114.811C29.2012 115.068 29.1602 115.373 29.125 115.725C29.1016 116.076 29.084 116.51 29.0723 117.025C29.0605 117.541 29.0488 118.145 29.0371 118.836C29.0371 119.527 29.0371 120.336 29.0371 121.262C29.0371 122.516 29.0488 123.658 29.0723 124.689C29.1074 125.709 29.1836 126.588 29.3008 127.326C29.4297 128.053 29.623 128.621 29.8809 129.031C30.1387 129.43 30.4961 129.629 30.9531 129.629C31.375 129.629 31.7793 129.512 32.166 129.277C32.5527 129.043 32.8926 128.686 33.1855 128.205C33.4785 127.713 33.7129 127.104 33.8887 126.377C34.0645 125.639 34.1523 124.771 34.1523 123.775C34.1523 122.182 34.1406 120.875 34.1172 119.855C34.1055 118.824 34.0234 118.016 33.8711 117.43C33.7188 116.844 33.4727 116.439 33.1328 116.217C32.8047 115.982 32.3184 115.865 31.6738 115.865V115.777L37.3164 113.668C37.2227 113.844 37.1406 114.031 37.0703 114.23C37 114.43 36.9414 114.682 36.8945 114.986C36.8477 115.279 36.8066 115.637 36.7715 116.059C36.748 116.48 36.7246 117.002 36.7012 117.623C36.6895 118.232 36.6777 118.953 36.666 119.785C36.666 120.617 36.666 121.59 36.666 122.703ZM44.1719 107.322C44.043 108.998 43.9727 110.814 43.9609 112.771C43.9609 114.729 43.9609 116.797 43.9609 118.977C43.9609 120.57 43.9609 122.146 43.9609 123.705C43.9727 125.264 44.0254 126.822 44.1191 128.381C44.166 129.014 44.3301 129.547 44.6113 129.98C44.8926 130.402 45.332 130.713 45.9297 130.912V131H39.584V130.912C40.1816 130.713 40.6094 130.385 40.8672 129.928C41.125 129.471 41.2773 128.932 41.3242 128.311C41.4062 126.424 41.4707 124.672 41.5176 123.055C41.5762 121.438 41.6055 119.861 41.6055 118.326C41.6055 116.826 41.5996 115.555 41.5879 114.512C41.5879 113.457 41.5645 112.578 41.5176 111.875C41.4707 111.172 41.3945 110.615 41.2891 110.205C41.1953 109.795 41.0488 109.49 40.8496 109.291C40.6621 109.08 40.4219 108.951 40.1289 108.904C39.8359 108.846 39.4785 108.816 39.0566 108.816V108.729L44.1719 107.322ZM51.3789 107.322C51.25 108.998 51.1797 110.814 51.168 112.771C51.168 114.729 51.168 116.797 51.168 118.977C51.168 120.57 51.168 122.146 51.168 123.705C51.1797 125.264 51.2324 126.822 51.3262 128.381C51.373 129.014 51.5371 129.547 51.8184 129.98C52.0996 130.402 52.5391 130.713 53.1367 130.912V131H46.791V130.912C47.3887 130.713 47.8164 130.385 48.0742 129.928C48.332 129.471 48.4844 128.932 48.5312 128.311C48.6133 126.424 48.6777 124.672 48.7246 123.055C48.7832 121.438 48.8125 119.861 48.8125 118.326C48.8125 116.826 48.8066 115.555 48.7949 114.512C48.7949 113.457 48.7715 112.578 48.7246 111.875C48.6777 111.172 48.6016 110.615 48.4961 110.205C48.4023 109.795 48.2559 109.49 48.0566 109.291C47.8691 109.08 47.6289 108.951 47.3359 108.904C47.043 108.846 46.6855 108.816 46.2637 108.816V108.729L51.3789 107.322ZM56.4062 121.912C56.4062 120.822 56.4004 119.896 56.3887 119.135C56.3887 118.373 56.3652 117.74 56.3184 117.236C56.2715 116.721 56.1953 116.316 56.0898 116.023C55.9961 115.73 55.8496 115.514 55.6504 115.373C55.4629 115.221 55.2227 115.127 54.9297 115.092C54.6367 115.057 54.2793 115.039 53.8574 115.039V114.951L58.9727 113.545C58.8438 114.822 58.7734 116.234 58.7617 117.781C58.7617 119.316 58.7617 120.91 58.7617 122.562C58.7617 123.219 58.7617 123.77 58.7617 124.215C58.7617 124.66 58.7617 125.082 58.7617 125.48C58.7734 125.879 58.791 126.301 58.8145 126.746C58.8379 127.18 58.873 127.725 58.9199 128.381C58.9668 129.014 59.1309 129.547 59.4121 129.98C59.6934 130.402 60.1328 130.713 60.7305 130.912V131H54.3848V130.912C54.9824 130.713 55.4102 130.385 55.668 129.928C55.9258 129.471 56.0781 128.932 56.125 128.311C56.1484 127.771 56.1719 127.303 56.1953 126.904C56.2305 126.494 56.2539 126.125 56.2656 125.797C56.2891 125.469 56.3066 125.164 56.3184 124.883C56.3418 124.602 56.3594 124.314 56.3711 124.021C56.3828 123.729 56.3887 123.418 56.3887 123.09C56.4004 122.75 56.4062 122.357 56.4062 121.912ZM55.7207 109.291C55.7207 108.846 55.873 108.471 56.1777 108.166C56.4824 107.85 56.8574 107.691 57.3027 107.691C57.748 107.691 58.123 107.85 58.4277 108.166C58.7441 108.471 58.9023 108.846 58.9023 109.291C58.9023 109.736 58.7441 110.111 58.4277 110.416C58.123 110.721 57.748 110.873 57.3027 110.873C56.8574 110.873 56.4824 110.721 56.1777 110.416C55.873 110.111 55.7207 109.736 55.7207 109.291ZM73.2988 120.594C73.2988 121.414 73.2988 122.17 73.2988 122.861C73.2988 123.541 73.3047 124.209 73.3164 124.865C73.3281 125.521 73.3457 126.189 73.3691 126.869C73.3926 127.549 73.4219 128.287 73.457 129.084C73.4922 129.529 73.6387 129.91 73.8965 130.227C74.1543 130.531 74.5527 130.76 75.0918 130.912V131H69.6074V130.912C70.0176 130.783 70.3105 130.549 70.4863 130.209C70.6738 129.857 70.7852 129.459 70.8203 129.014C70.8555 127.912 70.8789 126.928 70.8906 126.061C70.9141 125.182 70.9258 124.432 70.9258 123.811C70.9258 122.568 70.9141 121.432 70.8906 120.4C70.8672 119.369 70.7969 118.49 70.6797 117.764C70.5625 117.025 70.3867 116.457 70.1523 116.059C69.9297 115.648 69.6074 115.443 69.1855 115.443C68.7988 115.443 68.4355 115.555 68.0957 115.777C67.7559 116 67.457 116.316 67.1992 116.727C66.9531 117.125 66.7539 117.605 66.6016 118.168C66.4492 118.73 66.373 119.352 66.373 120.031V122.316C66.373 123.453 66.3848 124.584 66.4082 125.709C66.4316 126.822 66.4727 127.947 66.5312 129.084C66.5664 129.529 66.6836 129.91 66.8828 130.227C67.0938 130.531 67.4043 130.76 67.8145 130.912V131H62.1016V130.912C62.6992 130.783 63.127 130.549 63.3848 130.209C63.6543 129.857 63.8066 129.459 63.8418 129.014C63.9004 127.854 63.9473 126.764 63.9824 125.744C64.0176 124.713 64.0352 123.705 64.0352 122.721C64.0352 121.373 64.0234 120.254 64 119.363C63.9766 118.473 63.8828 117.764 63.7188 117.236C63.5664 116.697 63.3145 116.316 62.9629 116.094C62.623 115.871 62.1309 115.76 61.4863 115.76V115.672L66.25 113.562C66.1562 113.879 66.1035 114.248 66.0918 114.67C66.0801 115.08 66.0742 115.508 66.0742 115.953C66.3086 115.461 66.5664 115.062 66.8477 114.758C67.1289 114.441 67.416 114.195 67.709 114.02C68.002 113.844 68.2891 113.727 68.5703 113.668C68.8633 113.598 69.1328 113.562 69.3789 113.562C70.5977 113.562 71.5527 114.16 72.2441 115.355C72.9473 116.539 73.2988 118.285 73.2988 120.594ZM84.3906 128.381C84.332 127.76 84.2734 127.145 84.2148 126.535C84.168 125.926 84.1152 125.305 84.0566 124.672C83.7988 124.648 83.5117 124.625 83.1953 124.602C82.8789 124.578 82.5098 124.543 82.0879 124.496C81.7129 124.461 81.373 124.432 81.0684 124.408C80.7754 124.373 80.5117 124.338 80.2773 124.303C80.2422 124.631 80.2012 124.994 80.1543 125.393C80.1191 125.791 80.0781 126.213 80.0312 126.658C79.9844 127.092 79.9316 127.537 79.873 127.994C79.8145 128.451 79.7441 128.902 79.6621 129.348C79.6035 129.711 79.5391 130.08 79.4688 130.455C79.4102 130.83 79.3281 131.188 79.2227 131.527C79.1172 131.879 78.9766 132.201 78.8008 132.494C78.625 132.799 78.3906 133.057 78.0977 133.268C77.8047 133.49 77.4355 133.666 76.9902 133.795C76.5566 133.924 76.0234 133.982 75.3906 133.971L73.9844 131.703L74.0371 131.65C74.4707 131.85 74.8691 131.949 75.2324 131.949C75.7129 131.949 76.0938 131.715 76.375 131.246C76.668 130.777 76.8906 130.109 77.043 129.242C77.207 128.527 77.3594 127.695 77.5 126.746C77.6406 125.797 77.7695 124.818 77.8867 123.811C78.0039 122.803 78.1094 121.818 78.2031 120.857C78.2969 119.896 78.3848 119.053 78.4668 118.326C78.6074 116.967 78.7422 115.613 78.8711 114.266C79.0117 112.906 79.1172 111.488 79.1875 110.012C79.2227 109.52 79.1465 109.086 78.959 108.711C78.7832 108.336 78.4844 108.055 78.0625 107.867L77.7988 107.762L77.7812 107.674H86.4824L86.4648 107.762L86.1836 107.867C85.7617 108.055 85.457 108.336 85.2695 108.711C85.0938 109.086 85.0293 109.52 85.0762 110.012C85.1465 111.488 85.252 112.9 85.3926 114.248C85.5332 115.596 85.6855 116.955 85.8496 118.326C86.0371 119.861 86.2246 121.438 86.4121 123.055C86.5996 124.672 86.8516 126.424 87.168 128.311C87.3203 128.932 87.5605 129.471 87.8887 129.928C88.2285 130.385 88.7148 130.713 89.3477 130.912L89.3652 131H83.0371L83.0195 130.912C83.582 130.713 83.9629 130.402 84.1621 129.98C84.373 129.547 84.4492 129.014 84.3906 128.381ZM82.1055 123.143C82.457 123.143 82.7793 123.143 83.0723 123.143C83.377 123.131 83.6523 123.119 83.8984 123.107L83.5293 118.977C83.5059 118.754 83.4707 118.449 83.4238 118.062C83.3887 117.676 83.3477 117.242 83.3008 116.762C83.2539 116.27 83.2012 115.748 83.1426 115.197C83.0957 114.646 83.0488 114.096 83.002 113.545C82.873 112.279 82.7441 110.902 82.6152 109.414L81.7715 109.396C81.6309 110.826 81.4961 112.168 81.3672 113.422C81.3086 113.961 81.25 114.506 81.1914 115.057C81.1445 115.607 81.0918 116.129 81.0332 116.621C80.9863 117.113 80.9395 117.564 80.8926 117.975C80.8574 118.385 80.8281 118.719 80.8047 118.977C80.7227 119.809 80.6523 120.559 80.5938 121.227C80.5469 121.895 80.4883 122.533 80.418 123.143H82.1055ZM91.1758 124.812C91.1875 123.43 91.1816 122.088 91.1582 120.787C91.1465 119.486 91.0996 118.162 91.0176 116.814C90.9707 116.1 90.7891 115.496 90.4727 115.004C90.1562 114.5 89.6758 114.143 89.0312 113.932V113.844H92.2832C92.6582 114.008 92.9395 114.23 93.127 114.512C93.3262 114.793 93.4727 115.104 93.5664 115.443C93.6367 115.314 93.748 115.145 93.9004 114.934C94.0527 114.723 94.252 114.523 94.498 114.336C94.7441 114.137 95.0371 113.967 95.377 113.826C95.7285 113.674 96.1328 113.592 96.5898 113.58C97.4688 113.568 98.2363 113.797 98.8926 114.266C99.5488 114.723 100.1 115.367 100.545 116.199C100.99 117.02 101.324 117.998 101.547 119.135C101.77 120.271 101.881 121.508 101.881 122.844C101.881 124.168 101.746 125.352 101.477 126.395C101.207 127.438 100.826 128.322 100.334 129.049C99.8535 129.775 99.2734 130.332 98.5938 130.719C97.9258 131.094 97.1875 131.281 96.3789 131.281C96.1562 131.281 95.9102 131.252 95.6406 131.193C95.3828 131.146 95.1191 131.064 94.8496 130.947C94.5918 130.818 94.3457 130.66 94.1113 130.473C93.8887 130.273 93.7012 130.039 93.5488 129.77C93.5488 130.859 93.5547 131.797 93.5664 132.582C93.5781 133.367 93.6543 134.012 93.7949 134.516C93.9473 135.031 94.1934 135.412 94.5332 135.658C94.8848 135.904 95.3945 136.027 96.0625 136.027V136.115L90.9473 137.521C90.9941 137.1 91.0293 136.531 91.0527 135.816C91.0762 135.102 91.0938 134.328 91.1055 133.496C91.1289 132.664 91.1406 131.82 91.1406 130.965C91.1523 130.109 91.1582 129.324 91.1582 128.609L91.1758 124.812ZM96.291 115.18C95.9629 115.18 95.6465 115.262 95.3418 115.426C95.0371 115.59 94.7617 115.836 94.5156 116.164C94.2812 116.48 94.082 116.879 93.918 117.359C93.7656 117.84 93.6777 118.402 93.6543 119.047C93.6191 119.633 93.5898 120.189 93.5664 120.717C93.5547 121.232 93.543 121.742 93.5312 122.246C93.5312 122.738 93.5254 123.23 93.5137 123.723C93.5137 124.215 93.5137 124.725 93.5137 125.252C93.5137 126.307 93.6074 127.127 93.7949 127.713C93.9824 128.299 94.2051 128.732 94.4629 129.014C94.7207 129.283 94.9844 129.447 95.2539 129.506C95.5352 129.564 95.7578 129.594 95.9219 129.594C98.1367 129.594 99.2441 127.344 99.2441 122.844C99.2441 121.602 99.1738 120.506 99.0332 119.557C98.8926 118.596 98.6875 117.793 98.418 117.148C98.1602 116.504 97.8496 116.018 97.4863 115.689C97.123 115.35 96.7246 115.18 96.291 115.18ZM105.203 124.812C105.215 123.43 105.209 122.088 105.186 120.787C105.174 119.486 105.127 118.162 105.045 116.814C104.998 116.1 104.816 115.496 104.5 115.004C104.184 114.5 103.703 114.143 103.059 113.932V113.844H106.311C106.686 114.008 106.967 114.23 107.154 114.512C107.354 114.793 107.5 115.104 107.594 115.443C107.664 115.314 107.775 115.145 107.928 114.934C108.08 114.723 108.279 114.523 108.525 114.336C108.771 114.137 109.064 113.967 109.404 113.826C109.756 113.674 110.16 113.592 110.617 113.58C111.496 113.568 112.264 113.797 112.92 114.266C113.576 114.723 114.127 115.367 114.572 116.199C115.018 117.02 115.352 117.998 115.574 119.135C115.797 120.271 115.908 121.508 115.908 122.844C115.908 124.168 115.773 125.352 115.504 126.395C115.234 127.438 114.854 128.322 114.361 129.049C113.881 129.775 113.301 130.332 112.621 130.719C111.953 131.094 111.215 131.281 110.406 131.281C110.184 131.281 109.938 131.252 109.668 131.193C109.41 131.146 109.146 131.064 108.877 130.947C108.619 130.818 108.373 130.66 108.139 130.473C107.916 130.273 107.729 130.039 107.576 129.77C107.576 130.859 107.582 131.797 107.594 132.582C107.605 133.367 107.682 134.012 107.822 134.516C107.975 135.031 108.221 135.412 108.561 135.658C108.912 135.904 109.422 136.027 110.09 136.027V136.115L104.975 137.521C105.021 137.1 105.057 136.531 105.08 135.816C105.104 135.102 105.121 134.328 105.133 133.496C105.156 132.664 105.168 131.82 105.168 130.965C105.18 130.109 105.186 129.324 105.186 128.609L105.203 124.812ZM110.318 115.18C109.99 115.18 109.674 115.262 109.369 115.426C109.064 115.59 108.789 115.836 108.543 116.164C108.309 116.48 108.109 116.879 107.945 117.359C107.793 117.84 107.705 118.402 107.682 119.047C107.646 119.633 107.617 120.189 107.594 120.717C107.582 121.232 107.57 121.742 107.559 122.246C107.559 122.738 107.553 123.23 107.541 123.723C107.541 124.215 107.541 124.725 107.541 125.252C107.541 126.307 107.635 127.127 107.822 127.713C108.01 128.299 108.232 128.732 108.49 129.014C108.748 129.283 109.012 129.447 109.281 129.506C109.562 129.564 109.785 129.594 109.949 129.594C112.164 129.594 113.271 127.344 113.271 122.844C113.271 121.602 113.201 120.506 113.061 119.557C112.92 118.596 112.715 117.793 112.445 117.148C112.188 116.504 111.877 116.018 111.514 115.689C111.15 115.35 110.752 115.18 110.318 115.18Z" fill="black"/>
</svg>
